<svg width="159" height="60" viewBox="0 0 159 60" fill="none" xmlns="http://www.w3.org/2000/svg">
<g clip-path="url(#clip0_274_8368)">
<path d="M29.2714 60.0001C30.9205 60.0001 32.5696 59.5873 34.0812 58.624C35.4555 57.7983 36.5549 56.4221 37.242 54.9084C37.3794 54.7708 37.3794 54.4955 37.3794 54.3579C37.3794 54.2203 37.242 53.9451 37.242 53.8075C37.1046 53.8075 36.9672 53.6698 36.8297 53.6698C36.6923 53.6698 36.4175 53.5322 36.28 53.5322H22.4002C22.2628 53.5322 21.9879 53.5322 21.8505 53.6698C21.7131 53.8075 21.5756 53.9451 21.4382 54.0827C21.3008 54.2203 21.3008 54.3579 21.3008 54.6331C21.3008 54.7708 21.3008 55.046 21.4382 55.1836C22.1253 56.6974 23.2247 57.9359 24.599 58.8992C25.9732 59.5873 27.6223 60.0001 29.2714 60.0001Z" fill="url(#paint0_linear_274_8368)"/>
<path d="M50.7096 45.4129C49.6102 45.4129 48.6482 45 47.8237 44.312C46.9992 43.6239 46.5869 42.523 46.5869 41.5597V26.9725C46.5869 23.2569 45.3501 19.6789 43.0138 16.789C40.6776 13.8991 37.3794 11.8349 33.669 10.8716C33.5316 9.9083 32.9819 8.945 32.2947 8.25692C31.4702 7.56885 30.5082 7.15601 29.4088 7.15601C28.3094 7.15601 27.3475 7.56885 26.5229 8.25692C25.6984 8.945 25.2861 9.9083 25.1487 10.8716C21.8505 11.6973 18.8272 13.4863 16.6284 15.9633C14.2922 18.4404 12.9179 21.4679 12.5056 24.7707C12.5056 24.9083 12.5056 24.9083 12.5056 25.0459C12.5056 25.1835 12.5056 25.3211 12.5056 25.4588C12.5056 25.5964 12.5056 25.734 12.5056 25.8716C12.5056 26.0092 12.5056 26.1468 12.5056 26.1468C12.5056 26.4221 12.5056 26.5597 12.5056 26.8349V41.2844C12.5056 42.3854 12.0934 43.3487 11.2688 44.0367C10.1694 45 9.07003 45.4129 7.97063 45.4129C7.69578 45.4129 7.42094 45.4129 7.28351 45.5505C7.00866 45.6881 6.87124 45.8257 6.59639 45.9633C6.45897 46.101 6.32154 46.3762 6.18412 46.5138C6.04669 46.789 6.04669 46.9266 6.04669 47.2019C6.04669 47.7523 6.18412 48.1652 6.59639 48.578C7.00866 48.9909 7.42094 49.1285 7.97063 49.1285H50.7096C51.2593 49.1285 51.6716 48.8533 52.0839 48.578C52.4961 48.1652 52.6336 47.7523 52.6336 47.3395C52.6336 46.789 52.4961 46.3762 52.0839 46.101C51.6716 45.5505 51.1219 45.4129 50.7096 45.4129Z" fill="url(#paint1_linear_274_8368)"/>
<path d="M41.6396 8.11923C43.9758 8.66969 46.1746 9.77061 47.6863 11.5596C49.3354 13.3486 50.2973 15.5504 50.5722 17.7523C50.5722 17.8899 50.5722 18.0275 50.7096 18.1651C50.7096 18.3027 50.847 18.4403 50.9845 18.4403C51.1219 18.5779 51.2593 18.5779 51.2593 18.5779C51.2593 18.5779 51.5342 18.5779 51.6716 18.5779C51.9464 18.5779 52.2213 18.4403 52.3587 18.3027C52.4961 18.1651 52.4961 18.0275 52.4961 18.0275C52.4961 17.8899 52.4961 17.7523 52.4961 17.6146C52.2213 14.8624 51.1219 12.2477 49.1979 10.1835C47.274 8.11923 44.8004 6.74309 42.0519 6.19263C42.0519 6.19263 41.9145 6.19263 41.777 6.19263C41.5022 6.19263 41.3648 6.33024 41.0899 6.46786C40.9525 6.60547 40.8151 6.8807 40.8151 7.01831C40.8151 7.29354 40.8151 7.43116 40.9525 7.70639C41.2273 7.844 41.5022 7.98162 41.6396 8.11923Z" fill="url(#paint2_linear_274_8368)"/>
<path d="M42.739 1.92669C46.4494 2.75237 49.7476 4.54137 52.2213 7.29366C54.6949 10.046 56.2066 13.3487 56.6188 17.0643C56.6188 17.2019 56.6188 17.3395 56.7563 17.4771C56.7563 17.6148 56.8937 17.7524 57.0311 17.7524C57.1685 17.89 57.306 17.89 57.306 17.89C57.4434 17.89 57.5808 17.89 57.7182 17.89C57.9931 17.89 58.2679 17.7524 58.4054 17.6148C58.5428 17.4771 58.5428 17.3395 58.5428 17.3395C58.5428 17.2019 58.5428 17.0643 58.5428 16.9267C58.1305 12.9359 56.4814 9.08265 53.7329 6.05513C50.9844 3.0276 47.274 0.963383 43.1512 0.137695C43.1512 0.137695 43.0138 0.137695 42.8764 0.137695C42.6016 0.137695 42.4641 0.27531 42.1893 0.412925C42.0519 0.550539 41.9144 0.825769 41.9144 0.963383C41.9144 1.23861 41.9144 1.37623 42.0519 1.65146C42.3267 1.65146 42.6016 1.78907 42.739 1.92669Z" fill="url(#paint3_linear_274_8368)"/>
<path d="M16.9032 8.11923C17.178 8.11923 17.3155 7.98162 17.4529 7.70639C17.5903 7.43116 17.7277 7.29354 17.5903 7.01831C17.5903 6.74309 17.4529 6.60547 17.3155 6.46786C17.178 6.33024 16.9032 6.19263 16.6283 6.19263C16.4909 6.19263 16.4909 6.19263 16.3535 6.19263C13.605 6.74309 11.1314 8.11923 9.20743 10.1835C7.28348 12.2477 6.18409 14.8624 5.90924 17.477C5.90924 17.6146 5.90924 17.7523 5.90924 17.8899C5.90924 18.0275 6.04666 18.1651 6.04666 18.1651C6.18409 18.3027 6.18409 18.3027 6.32151 18.4403C6.45894 18.4403 6.59636 18.5779 6.73379 18.5779C6.87121 18.5779 7.00864 18.5779 7.14606 18.5779C7.28348 18.5779 7.42091 18.4403 7.42091 18.4403C7.55833 18.3027 7.55833 18.3027 7.69576 18.1651C7.69576 18.0275 7.83318 17.8899 7.83318 17.7523C8.24545 15.4128 9.20743 13.211 10.8565 11.5596C12.5056 9.77061 14.567 8.53208 16.9032 8.11923Z" fill="url(#paint4_linear_274_8368)"/>
<path d="M15.8038 1.92661C16.0787 1.92661 16.2161 1.78899 16.3535 1.51376C16.4909 1.37615 16.6283 1.10092 16.4909 0.825688C16.4909 0.550459 16.3535 0.412844 16.2161 0.275229C16.0787 0.137615 15.9412 0 15.6664 0C15.529 0 15.529 0 15.3915 0C11.2688 0.825688 7.55834 2.88991 4.80985 5.91743C2.06137 8.94495 0.274849 12.7982 0 16.789C0 16.9266 0 17.0642 0 17.2018C0 17.3395 0.137424 17.4771 0.137424 17.4771C0.274849 17.6147 0.274849 17.6147 0.412273 17.7523C0.549698 17.7523 0.687122 17.8899 0.824546 17.8899C0.961971 17.8899 1.09939 17.8899 1.23682 17.8899C1.37424 17.8899 1.51167 17.7523 1.51167 17.7523C1.64909 17.6147 1.64909 17.6147 1.78652 17.4771C1.92394 17.3395 1.92394 17.2018 1.92394 17.0642C2.33621 13.4862 3.84788 10.0459 6.32152 7.29358C8.93258 4.54129 12.2308 2.61468 15.8038 1.92661Z" fill="url(#paint5_linear_274_8368)"/>
<path d="M150.48 23.3944C149.38 23.3944 148.281 23.532 147.181 23.9449C146.082 24.3577 145.258 24.9082 144.433 25.7339V13.6238H139.623H139.486C139.486 13.6238 139.486 13.6238 139.486 13.7614V46.3761H144.296H144.433C144.433 46.3761 144.433 46.3761 144.433 46.2385V33.0275C144.433 31.7889 144.845 30.688 145.67 29.8623C146.494 29.0366 147.594 28.4862 148.831 28.3486C149.518 28.3486 150.067 28.3485 150.755 28.6238C151.304 28.899 151.854 29.1742 152.404 29.5871C152.816 29.9999 153.228 30.5504 153.503 31.1008C153.778 31.6513 153.915 32.3394 153.915 32.8898V46.2385H158.725H158.863C158.863 46.2385 158.863 46.2385 158.863 46.1008V31.6513C158.863 29.4495 158.038 27.3852 156.389 25.8715C154.877 24.3577 152.678 23.3944 150.48 23.3944Z" fill="white"/>
<path d="M113.925 22.5688H109.115H108.978C108.978 22.5688 108.978 22.5688 108.978 22.7065V37.156C108.978 37.7065 108.84 38.3945 108.565 38.945C108.29 39.4955 108.016 40.0459 107.466 40.4588C107.054 40.8716 106.504 41.1468 105.954 41.4221C105.404 41.5597 104.717 41.6973 104.168 41.6973C102.931 41.5597 101.831 41.1468 101.007 40.3211C100.182 39.4955 99.7701 38.3945 99.7701 37.2936V22.7065H94.9602H94.8228C94.8228 22.7065 94.8228 22.7065 94.8228 22.8441V37.156C94.8228 42.2477 98.9455 46.5138 104.305 46.6514C109.802 46.789 114.337 42.523 114.337 37.4312V22.7065C114.062 22.7065 114.062 22.5688 113.925 22.5688Z" fill="white"/>
<path d="M117.36 41.2844C118.322 43.2111 120.659 46.5138 126.293 46.5138C132.614 46.5138 135.5 42.9358 135.5 39.3578C135.5 35.367 132.752 33.0276 127.255 32.0643C124.369 31.6514 123.27 30.6881 123.27 29.1744C123.27 27.6606 124.644 26.6973 126.568 26.6973C128.354 26.6973 129.866 27.6606 130.416 29.1744L134.401 27.523C134.401 27.523 134.401 27.523 134.401 27.3854C133.164 24.3578 130.141 22.5688 126.293 22.5688C120.796 22.5688 117.91 25.8716 117.91 29.1744C117.91 33.0276 120.521 35.5046 126.018 36.3303C128.904 36.8808 130.141 37.8441 130.141 39.3578C130.141 41.0092 128.629 41.9725 126.156 41.9725C125.194 41.9725 124.369 41.6973 123.544 41.2844C122.72 40.8716 122.17 40.1835 121.758 39.3578C121.758 39.3578 121.758 39.3578 121.621 39.3578L117.498 41.1468C117.36 41.1468 117.36 41.1468 117.36 41.2844C117.223 41.1468 117.223 41.1468 117.36 41.2844C117.223 41.2844 117.223 41.2844 117.36 41.2844Z" fill="white"/>
<path d="M81.2178 13.4863H69.1244H68.987H68.8496C68.8496 13.4863 68.8496 13.4863 68.7122 13.6239V13.7616V46.101C68.7122 46.2386 68.7122 46.2386 68.8496 46.3762C68.8496 46.3762 68.987 46.5139 69.1244 46.5139H73.6594C73.7969 46.5139 73.7969 46.5139 73.9343 46.3762C73.9343 46.3762 74.0717 46.2386 74.0717 46.101V33.4405C74.0717 33.3028 74.0717 33.3028 74.2091 33.1652C74.2091 33.1652 74.3466 33.0276 74.484 33.0276H81.3552C86.9896 33.0276 91.3872 28.7616 91.3872 23.257C91.3872 17.7524 86.8522 13.4863 81.2178 13.4863ZM81.3552 28.3487H78.1944C77.5073 28.3487 76.9576 28.4863 76.4079 28.8992C75.8582 29.312 75.5834 29.7249 75.3085 30.4129L75.1711 30.9634C75.1711 30.9634 75.1711 31.101 75.0337 31.101H74.8963H74.2091C74.2091 31.101 74.0717 31.101 74.0717 30.9634L73.9343 30.8258V18.8533C73.9343 18.7157 73.9343 18.7157 74.0717 18.5781C74.0717 18.5781 74.2091 18.4405 74.3466 18.4405H81.0804C82.3172 18.4405 83.554 18.8533 84.516 19.679C85.4779 20.5047 86.0276 21.6056 86.1651 22.8441C86.4399 25.734 84.2411 28.2111 81.3552 28.3487Z" fill="white"/>
</g>
<defs>
<linearGradient id="paint0_linear_274_8368" x1="38.1669" y1="38.9987" x2="27.3548" y2="58.0225" gradientUnits="userSpaceOnUse">
<stop stop-color="#FF94A6"/>
<stop offset="0.32" stop-color="#E03DC1"/>
<stop offset="1" stop-color="#8247E5"/>
</linearGradient>
<linearGradient id="paint1_linear_274_8368" x1="43.6125" y1="18.2444" x2="20.6899" y2="51.9628" gradientUnits="userSpaceOnUse">
<stop stop-color="#FF94A6"/>
<stop offset="0.32" stop-color="#E03DC1"/>
<stop offset="1" stop-color="#8247E5"/>
</linearGradient>
<linearGradient id="paint2_linear_274_8368" x1="63.0988" y1="1.11795" x2="6.02913" y2="40.3299" gradientUnits="userSpaceOnUse">
<stop stop-color="#FF94A6"/>
<stop offset="0.32" stop-color="#E03DC1"/>
<stop offset="1" stop-color="#8247E5"/>
</linearGradient>
<linearGradient id="paint3_linear_274_8368" x1="62.643" y1="0.458064" x2="5.57314" y2="39.6672" gradientUnits="userSpaceOnUse">
<stop stop-color="#FF94A6"/>
<stop offset="0.32" stop-color="#E03DC1"/>
<stop offset="1" stop-color="#8247E5"/>
</linearGradient>
<linearGradient id="paint4_linear_274_8368" x1="51.632" y1="-15.568" x2="-5.43497" y2="23.6411" gradientUnits="userSpaceOnUse">
<stop stop-color="#FF94A6"/>
<stop offset="0.32" stop-color="#E03DC1"/>
<stop offset="1" stop-color="#8247E5"/>
</linearGradient>
<linearGradient id="paint5_linear_274_8368" x1="48.7222" y1="-19.8028" x2="-8.32154" y2="19.3886" gradientUnits="userSpaceOnUse">
<stop stop-color="#FF94A6"/>
<stop offset="0.32" stop-color="#E03DC1"/>
<stop offset="1" stop-color="#8247E5"/>
</linearGradient>
<clipPath id="clip0_274_8368">
<rect width="159" height="60" fill="white"/>
</clipPath>
</defs>
</svg>
