<svg width="14" height="13" viewBox="0 0 14 13" fill="none" xmlns="http://www.w3.org/2000/svg">
<path d="M9.17969 4.03906L12.5312 4.53125C12.8125 4.57812 13.0469 4.76562 13.1406 5.04688C13.2344 5.30469 13.1641 5.60938 12.9531 5.79688L10.5156 8.21094L11.1016 11.6328C11.1484 11.9141 11.0312 12.1953 10.7969 12.3594C10.5625 12.5469 10.2578 12.5469 10 12.4297L7 10.8125L3.97656 12.4297C3.74219 12.5469 3.41406 12.5469 3.20312 12.3594C2.96875 12.1953 2.85156 11.9141 2.89844 11.6328L3.46094 8.21094L1.02344 5.79688C0.8125 5.60938 0.742188 5.30469 0.835938 5.04688C0.929688 4.76562 1.16406 4.57812 1.44531 4.53125L4.82031 4.03906L6.32031 0.921875C6.4375 0.664062 6.69531 0.5 7 0.5C7.28125 0.5 7.53906 0.664062 7.65625 0.921875L9.17969 4.03906Z" fill="#F4511E"/>
</svg>
